<svg xmlns="http://www.w3.org/2000/svg" viewBox="0 0 1608.43 803.89"><defs><style>.cls-1{fill:#52b68f;}</style></defs><g id="Cerdd"><path d="M259.1,408.94c15.64,0,23.86-3.58,31.11-6.73,6.2-2.69,11.55-5,22.93-5s16.72,2.33,22.92,5a72,72,0,0,0,16.56,5.47V386.54a66.74,66.74,0,0,1-8.37-3.18c-7.25-3.15-15.47-6.72-31.11-6.72s-23.87,3.57-31.12,6.72c-6.2,2.7-11.55,5-22.92,5s-16.71-2.32-22.91-5a72.39,72.39,0,0,0-16.74-5.5V399a66.84,66.84,0,0,1,8.55,3.23C235.24,405.36,243.46,408.94,259.1,408.94Z"/><path d="M262.62,452.68c15.65,0,23.86-3.58,31.12-6.73,6.19-2.69,11.55-5,22.92-5s16.72,2.33,22.92,5a80.36,80.36,0,0,0,13,4.69V429.11c-1.64-.62-3.21-1.3-4.84-2-7.26-3.15-15.47-6.72-31.12-6.72s-23.87,3.57-31.12,6.72c-6.2,2.7-11.55,5-22.92,5s-16.71-2.32-22.9-5c-5.36-2.33-11.26-4.87-20.27-6.05v20.81A54.44,54.44,0,0,1,231.52,446C238.77,449.1,247,452.68,262.62,452.68Z"/><path d="M259.1,496.42c15.64,0,23.86-3.57,31.11-6.72,6.2-2.7,11.55-5,22.93-5s16.72,2.32,22.92,5a72.55,72.55,0,0,0,16.56,5.46V474a70,70,0,0,1-8.37-3.18c-7.25-3.16-15.47-6.73-31.11-6.73s-23.87,3.57-31.12,6.73c-6.2,2.69-11.55,5-22.92,5s-16.71-2.33-22.91-5a71.91,71.91,0,0,0-16.74-5.5v21.11A68.4,68.4,0,0,1,228,489.7C235.24,492.85,243.46,496.42,259.1,496.42Z"/><polygon class="cls-1" points="1255.81 451.27 1388.98 451.27 1322.4 517.86 1255.81 451.27"/><polygon class="cls-1" points="1388.98 584.44 1255.81 584.44 1322.4 517.86 1388.98 584.44"/><circle class="cls-1" cx="381.38" cy="286.03" r="66.59"/><path d="M500.7,587.85c-46.62,0-80.55-34.88-80.55-83.09s33.3-83.08,79.28-83.08c36.15,0,64.37,21.56,72.62,55.81L528.6,490.81c-3.8-17.12-14.58-27.27-29.17-27.27-19,0-33,17.12-33,40.91s13.95,40.91,33,40.91c15.54,0,28.54-11.74,30.44-29.5l44.4,13.32C566.66,565.65,538.12,587.85,500.7,587.85Z"/><path d="M588.22,504.76c0-48.2,33-83.08,78.64-83.08,44.4,0,76.75,34.88,76.75,83.08a79.12,79.12,0,0,1-.63,10.15H634.2c3.49,19,16.81,31.71,33.93,31.71,13,0,25.06-7.61,28.54-18.39l44.4,13.95c-10.15,26.64-39.32,45.67-73.57,45.67C621.52,587.85,588.22,553,588.22,504.76Zm109.09-15.22c-3.17-15.22-15.54-26.64-30.76-26.64s-27,10.79-31.4,26.64Z"/><path d="M766.44,425.48h34.25l8.56,22.84c7.93-16.81,21.25-26.64,38.37-26.64a36.1,36.1,0,0,1,16.49,3.8l-7.61,47.57c-2.85-1.27-7.93-1.9-12.69-1.9-19.34,0-33,13.32-33,33V584h-44.4Z"/><path d="M871.72,505.4c0-47.89,30.13-83.72,70.4-83.72a59.22,59.22,0,0,1,45,20V368.4h44.4V552.33l.64,31.71H997.3L990,564.38c-11.74,14.91-28.23,23.47-47.89,23.47C902.16,587.85,871.72,552.33,871.72,505.4Zm80.55,39.32c20.3,0,34.88-16.81,34.88-40.27s-14.58-40.28-34.88-40.28S917.39,481,917.39,504.45,932,544.72,952.27,544.72Z"/><path d="M1055.64,505.4c0-47.89,30.13-83.72,70.41-83.72a59.26,59.26,0,0,1,45,20V368.4h44.4V552.33l.63,31.71h-34.89l-7.29-19.66c-11.73,14.91-28.22,23.47-47.88,23.47C1086.09,587.85,1055.64,552.33,1055.64,505.4Zm80.55,39.32c20.3,0,34.89-16.81,34.89-40.27s-14.59-40.28-34.89-40.28-34.88,16.81-34.88,40.28S1115.9,544.72,1136.19,544.72Z"/></g></svg>